# Blender 4.2.1 LTS
# www.blender.org
mtllib cage.mtl
o cage
v -0.122005 1.319538 0.221554
v 0.113030 1.326760 0.220358
v -0.447737 0.804025 -0.004211
v -0.285012 0.791409 -0.204151
v -0.206076 0.725167 0.272928
v 0.000000 0.787079 -0.244509
v 0.447737 0.804025 -0.004211
v 0.285012 0.791409 -0.204151
v 0.000000 1.498177 -0.083446
v -0.117724 1.471835 0.034292
v 0.117724 1.471835 0.034292
v -0.330994 1.424117 -0.007945
v -0.843110 1.081759 0.051036
v -0.833742 1.066013 -0.040709
v 0.330994 1.424117 -0.007945
v 0.843110 1.081759 0.051036
v 0.827727 1.070981 -0.041265
v 0.306931 0.736030 0.230098
vn -0.9118 0.0769 0.4034
vn -0.4530 0.8830 -0.1228
vn -0.8510 -0.0559 -0.5221
vn 0.4529 0.8831 -0.1224
vn 0.8337 -0.0307 -0.5514
vn -0.0002 0.8268 -0.5625
vn 0.4615 -0.8768 -0.1351
vn 0.2813 -0.7084 0.6473
vn 0.2439 -0.5749 -0.7811
vn 0.0010 -0.5495 -0.8355
vn -0.1856 -0.6929 0.6967
vn -0.2458 -0.5771 -0.7788
vn -0.4518 -0.8896 -0.0667
vn -0.1569 0.4717 0.8677
vn 0.1499 0.4748 0.8672
vn 0.1611 0.9194 0.3588
vn -0.1622 0.9175 0.3632
vn 0.9217 0.0639 0.3825
s 1
f 13//1 12//2 14//3
f 15//4 17//5 9//6
f 12//2 9//6 14//3
f 7//7 18//8 8//9
f 6//10 18//8 5//11
f 14//3 9//6 4//12
f 4//12 9//6 6//10
f 8//9 18//8 6//10
f 6//10 9//6 8//9
f 9//6 17//5 8//9
f 17//5 7//7 8//9
f 4//12 5//11 3//13
f 14//3 4//12 3//13
f 13//1 5//11 1//14
f 18//8 2//15 5//11
f 13//1 3//13 5//11
f 2//15 11//16 10//17
f 10//17 1//14 2//15
f 6//10 5//11 4//12
f 15//4 9//6 11//16
f 10//17 9//6 12//2
f 7//7 17//5 16//18
f 16//18 18//8 7//7
f 13//1 14//3 3//13
f 15//4 16//18 17//5
f 15//4 11//16 2//15
f 18//8 16//18 2//15
f 12//2 13//1 1//14
f 1//14 10//17 12//2
f 2//15 1//14 5//11
f 15//4 2//15 16//18
f 9//6 10//17 11//16
