# Blender v2.93.5 OBJ File: ''
# www.blender.org
mtllib SpikyBox_Cage_split_in8.mtl
o SpikyBox_Cage
v -2.100000 -1.748069 2.100000
v -2.100000 10.115627 2.100002
v -2.100000 10.115627 -2.099998
v -2.100000 -1.748069 -2.100000
v 2.100000 10.115627 -2.099998
v 2.100000 -1.748069 -2.100000
v 2.100000 10.115627 2.100002
v 2.100000 -1.748069 2.100000
v -2.100000 4.183780 -2.099999
v -2.100000 4.183778 2.100001
v 2.100000 4.183779 2.100001
v 2.100000 4.183780 -2.099999
v -2.100000 1.217855 -2.100000
v -2.100000 7.149703 2.100001
v 2.100000 1.217855 2.100000
v 2.100000 1.217855 -2.100000
v -2.100000 7.149704 -2.099999
v -2.100000 1.217854 2.100000
v 2.100000 7.149703 2.100001
v 2.100000 7.149704 -2.099999
v -2.100000 -0.265107 -2.100000
v -2.100000 8.632666 2.100001
v 2.100000 -0.265107 2.100000
v 2.100000 -0.265107 -2.100000
v -2.100000 5.666742 -2.099999
v -2.100000 2.700816 2.100000
v 2.100000 5.666741 2.100001
v 2.100000 5.666742 -2.099999
v -2.100000 2.700817 -2.099999
v -2.100000 5.666740 2.100001
v 2.100000 2.700817 2.100000
v 2.100000 2.700817 -2.099999
v -2.100000 8.632666 -2.099998
v -2.100000 -0.265107 2.100000
v 2.100000 8.632666 2.100001
v 2.100000 8.632666 -2.099998
vn -1.0000 0.0000 0.0000
vn 0.0000 0.0000 -1.0000
vn 1.0000 -0.0000 0.0000
vn 0.0000 -0.0000 1.0000
vn 0.0000 -1.0000 -0.0000
vn 0.0000 1.0000 0.0000
usemtl Default_OBJ
s off
f 22//1 2//1 3//1 33//1
f 33//2 3//2 5//2 36//2
f 36//3 5//3 7//3 35//3
f 35//4 7//4 2//4 22//4
f 4//5 6//5 8//5 1//5
f 5//6 3//6 2//6 7//6
f 31//4 11//4 10//4 26//4
f 32//3 12//3 11//3 31//3
f 29//2 9//2 12//2 32//2
f 26//1 10//1 9//1 29//1
f 34//1 18//1 13//1 21//1
f 21//2 13//2 16//2 24//2
f 24//3 16//3 15//3 23//3
f 23//4 15//4 18//4 34//4
f 27//4 19//4 14//4 30//4
f 28//3 20//3 19//3 27//3
f 25//2 17//2 20//2 28//2
f 30//1 14//1 17//1 25//1
f 10//1 30//1 25//1 9//1
f 9//2 25//2 28//2 12//2
f 12//3 28//3 27//3 11//3
f 11//4 27//4 30//4 10//4
f 8//4 23//4 34//4 1//4
f 6//3 24//3 23//3 8//3
f 4//2 21//2 24//2 6//2
f 1//1 34//1 21//1 4//1
f 18//1 26//1 29//1 13//1
f 13//2 29//2 32//2 16//2
f 16//3 32//3 31//3 15//3
f 15//4 31//4 26//4 18//4
f 19//4 35//4 22//4 14//4
f 20//3 36//3 35//3 19//3
f 17//2 33//2 36//2 20//2
f 14//1 22//1 33//1 17//1
